<?xml version="1.0" encoding="UTF-8"?>
<svg width="800px" height="600px" viewBox="0 0 800 600" version="1.1" xmlns="http://www.w3.org/2000/svg" xmlns:xlink="http://www.w3.org/1999/xlink">
    <defs>
        <linearGradient x1="0%" y1="0%" x2="100%" y2="100%" id="linearGradient-1">
            <stop stop-color="#4F46E5" offset="0%"></stop>
            <stop stop-color="#10B981" offset="100%"></stop>
        </linearGradient>
        <linearGradient x1="0%" y1="0%" x2="100%" y2="100%" id="linearGradient-2">
            <stop stop-color="#4F46E5" offset="0%"></stop>
            <stop stop-color="#10B981" offset="100%"></stop>
        </linearGradient>
        <linearGradient x1="0%" y1="0%" x2="100%" y2="100%" id="linearGradient-3">
            <stop stop-color="#4F46E5" offset="0%"></stop>
            <stop stop-color="#10B981" offset="100%"></stop>
        </linearGradient>
    </defs>
    <g id="Security-Illustration" stroke="none" stroke-width="1" fill="none" fill-rule="evenodd">
        <!-- Background Elements -->
        <circle id="Background-Circle-1" fill="#F3F4F6" cx="400" cy="300" r="250"></circle>
        <circle id="Background-Circle-2" fill="#E5E7EB" cx="400" cy="300" r="200"></circle>
        
        <!-- Shield Base -->
        <path d="M400,150 L550,200 C550,350 500,450 400,500 C300,450 250,350 250,200 L400,150 Z" id="Shield-Base" fill="#FFFFFF" stroke="#E5E7EB" stroke-width="4"></path>
        
        <!-- Shield Border -->
        <path d="M400,170 L525,212.5 C525,345 482.5,432.5 400,475 C317.5,432.5 275,345 275,212.5 L400,170 Z" id="Shield-Border" stroke="url(#linearGradient-1)" stroke-width="8" stroke-linecap="round" stroke-linejoin="round"></path>
        
        <!-- Lambda Symbol -->
        <path d="M375,250 L425,250 L400,350 L450,350" id="Lambda-Symbol" stroke="url(#linearGradient-2)" stroke-width="12" stroke-linecap="round" stroke-linejoin="round"></path>
        
        <!-- File Icon -->
        <g id="File-Icon" transform="translate(200, 300)">
            <rect id="File-Base" fill="#FFFFFF" stroke="#E5E7EB" stroke-width="3" x="0" y="0" width="80" height="100" rx="5"></rect>
            <path d="M20,25 L60,25 M20,45 L60,45 M20,65 L40,65" id="File-Lines" stroke="#9CA3AF" stroke-width="4" stroke-linecap="round"></path>
            <circle id="File-Check" fill="#10B981" cx="70" cy="80" r="20"></circle>
            <path d="M60,80 L67,87 L80,74" id="Check-Mark" stroke="#FFFFFF" stroke-width="4" stroke-linecap="round" stroke-linejoin="round"></path>
        </g>
        
        <!-- URL Icon -->
        <g id="URL-Icon" transform="translate(520, 300)">
            <rect id="Browser-Window" fill="#FFFFFF" stroke="#E5E7EB" stroke-width="3" x="0" y="0" width="100" height="80" rx="5"></rect>
            <rect id="Browser-Header" fill="#F3F4F6" x="0" y="0" width="100" height="20" rx="5 5 0 0"></rect>
            <circle id="Browser-Button-1" fill="#EF4444" cx="10" cy="10" r="3"></circle>
            <circle id="Browser-Button-2" fill="#F59E0B" cx="20" cy="10" r="3"></circle>
            <circle id="Browser-Button-3" fill="#10B981" cx="30" cy="10" r="3"></circle>
            <rect id="URL-Bar" fill="#E5E7EB" x="10" y="30" width="80" height="10" rx="5"></rect>
            <path d="M15,50 L85,50 M15,60 L50,60" id="Content-Lines" stroke="#9CA3AF" stroke-width="2" stroke-linecap="round"></path>
            <circle id="URL-Check" fill="#10B981" cx="80" cy="70" r="15"></circle>
            <path d="M73,70 L78,75 L87,66" id="Check-Mark" stroke="#FFFFFF" stroke-width="3" stroke-linecap="round" stroke-linejoin="round"></path>
        </g>
        
        <!-- Connecting Lines -->
        <path d="M290,350 C320,380 350,400 400,400 C450,400 480,380 510,350" id="Connection-Line" stroke="#9CA3AF" stroke-width="3" stroke-linecap="round" stroke-dasharray="5,5"></path>
        
        <!-- Decorative Elements -->
        <circle id="Decorative-Circle-1" fill="url(#linearGradient-3)" cx="150" cy="150" r="15" opacity="0.7"></circle>
        <circle id="Decorative-Circle-2" fill="url(#linearGradient-3)" cx="650" cy="150" r="10" opacity="0.5"></circle>
        <circle id="Decorative-Circle-3" fill="url(#linearGradient-3)" cx="700" cy="400" r="20" opacity="0.6"></circle>
        <circle id="Decorative-Circle-4" fill="url(#linearGradient-3)" cx="100" cy="450" r="12" opacity="0.4"></circle>
        
        <!-- Binary Code Background -->
        <text id="Binary-1" font-family="Courier" font-size="10" fill="#E5E7EB" opacity="0.5" x="100" y="200">01001001 01110011 01101111 01101100 01100001 01110100 01100101 01100100</text>
        <text id="Binary-2" font-family="Courier" font-size="10" fill="#E5E7EB" opacity="0.5" x="120" y="220">01000001 01101110 01100001 01101100 01111001 01110011 01101001 01110011</text>
        <text id="Binary-3" font-family="Courier" font-size="10" fill="#E5E7EB" opacity="0.5" x="600" y="480">01010011 01100101 01100011 01110101 01110010 01100101</text>
        <text id="Binary-4" font-family="Courier" font-size="10" fill="#E5E7EB" opacity="0.5" x="580" y="500">01000101 01110000 01101000 01100101 01101101 01100101 01110010 01100001 01101100</text>
    </g>
</svg>
